<svg width="28" height="28" viewBox="0 0 28 28" fill="none" xmlns="http://www.w3.org/2000/svg">
<g clip-path="url(#clip0_0_325)">
<path d="M21.0003 14C21.0003 14.1452 20.9462 14.2905 20.8385 14.4033L8.00513 27.8201C7.78239 28.0525 7.41325 28.061 7.18028 27.8383C6.94731 27.6161 6.93817 27.247 7.16207 27.0134L19.6098 14L7.16206 0.986662C6.93932 0.752544 6.94845 0.383947 7.18028 0.161806C7.41325 -0.060936 7.78239 -0.0524044 8.00513 0.180017L20.8385 13.5967C20.9462 13.7095 21.0003 13.8547 21.0003 14Z" fill="#303C42"/>
<path d="M21.0003 14C21.0003 14.1452 20.9462 14.2905 20.8385 14.4033L8.00513 27.8201C7.78239 28.0525 7.41325 28.061 7.18028 27.8383C6.94731 27.6161 6.93817 27.247 7.16207 27.0134L19.6098 14L7.16206 0.986662C6.93932 0.752544 6.94845 0.383947 7.18028 0.161806C7.41325 -0.060936 7.78239 -0.0524044 8.00513 0.180017L20.8385 13.5967C20.9462 13.7095 21.0003 13.8547 21.0003 14Z" fill="url(#paint0_linear_0_325)"/>
</g>
<defs>
<linearGradient id="paint0_linear_0_325" x1="4.90008" y1="26.8085" x2="15.6715" y2="3.71057" gradientUnits="userSpaceOnUse">
<stop stop-color="white" stop-opacity="0.2"/>
<stop offset="1" stop-color="white" stop-opacity="0"/>
</linearGradient>
<clipPath id="clip0_0_325">
<rect width="28" height="28" fill="white" transform="translate(0 28) rotate(-90)"/>
</clipPath>
</defs>
</svg>
