<svg width="28" height="28" viewBox="0 0 28 28" fill="none" xmlns="http://www.w3.org/2000/svg">
<g clip-path="url(#clip0_0_328)">
<path d="M6.9997 14C6.9997 13.8548 7.05384 13.7095 7.16147 13.5967L19.9949 0.17994C20.2176 -0.0524828 20.5868 -0.0610141 20.8197 0.161729C21.0527 0.383925 21.0618 0.753013 20.8379 0.986584L8.39019 14L20.8379 27.0133C21.0607 27.2475 21.0515 27.6161 20.8197 27.8382C20.5868 28.0609 20.2176 28.0524 19.9949 27.82L7.16147 14.4033C7.05379 14.2905 6.9997 14.1453 6.9997 14Z" fill="#303C42"/>
<path d="M6.9997 14C6.9997 13.8548 7.05384 13.7095 7.16147 13.5967L19.9949 0.17994C20.2176 -0.0524828 20.5868 -0.0610141 20.8197 0.161729C21.0527 0.383925 21.0618 0.753013 20.8379 0.986584L8.39019 14L20.8379 27.0133C21.0607 27.2475 21.0515 27.6161 20.8197 27.8382C20.5868 28.0609 20.2176 28.0524 19.9949 27.82L7.16147 14.4033C7.05379 14.2905 6.9997 14.1453 6.9997 14Z" fill="url(#paint0_linear_0_328)"/>
</g>
<defs>
<linearGradient id="paint0_linear_0_328" x1="23.0999" y1="1.19148" x2="12.3285" y2="24.2894" gradientUnits="userSpaceOnUse">
<stop stop-color="white" stop-opacity="0.2"/>
<stop offset="1" stop-color="white" stop-opacity="0"/>
</linearGradient>
<clipPath id="clip0_0_328">
<rect width="28" height="28" fill="white" transform="translate(28) rotate(90)"/>
</clipPath>
</defs>
</svg>
