<svg width="64" height="64" viewBox="0 0 64 64" fill="none" xmlns="http://www.w3.org/2000/svg">
<path d="M44 44C43.4477 44 43 44.4477 43 45C43 45.5523 43.4477 46 44 46C45.1027 46 46 46.8973 46 48C46 48.5522 46.4478 49 47 49C47.5522 49 48 48.5522 48 48C48 45.7944 46.2056 44 44 44Z" fill="#FF1010"/>
<path d="M53 0H11C9.34588 0 8 1.34588 8 3V57C8 58.6541 9.34588 60 11 60H33.0107C33.0239 60.0975 33.0499 60.1939 33.0921 60.2854C33.2289 60.5812 33.5011 60.792 33.822 60.85L36.417 61.3194L38.7086 63.6944C38.8983 63.8909 39.1586 64 39.4281 64C39.4692 64 39.5107 63.9974 39.552 63.9922C39.8645 63.9532 40.1403 63.7694 40.2964 63.4961L42.2944 60H45.6829L47.6614 63.4929C47.8169 63.7674 48.0928 63.9524 48.4058 63.9921C48.4478 63.9974 48.4897 64 48.5315 64C48.8011 64 49.0614 63.8909 49.251 63.6944L51.5426 61.3194L54.1376 60.85C54.4578 60.7921 54.7296 60.5821 54.8666 60.2871C55.0025 59.9945 54.9884 59.6548 54.8298 59.3741C55.5599 58.8095 56 57.9313 56 57V3C56 1.34588 54.6541 0 53 0ZM10 57V3C10 2.44863 10.4486 2 11 2H53C53.5514 2 54 2.44863 54 3V57C54 57.2145 53.9282 57.4204 53.8032 57.5899L50.7496 52.2861C51.5399 51.0461 52 49.5762 52 48C52 43.5887 48.4113 40 44 40C39.5887 40 36 43.5887 36 48C36 49.5752 36.4595 51.0444 37.2489 52.2839L33.9277 58H11C10.4486 58 10 57.5514 10 57ZM44 54C40.6916 54 38 51.3084 38 48C38 44.6916 40.6916 42 44 42C47.3084 42 50 44.6916 50 48C50 51.3084 47.3084 54 44 54ZM39.2217 61.3459L37.6321 59.6985C37.4864 59.5475 37.297 59.4463 37.0905 59.4089L35.5809 59.1357L38.616 53.9119C39.6554 54.8594 40.9447 55.5369 42.3721 55.8331L39.2217 61.3459ZM43.4374 58L43.9961 57.0221L44.55 58H43.4374ZM50.8694 59.4089C50.6629 59.4463 50.4735 59.5475 50.3278 59.6985L48.7417 61.342L45.622 55.8344C47.0499 55.5391 48.3399 54.8624 49.3801 53.9155L52.385 59.1346L50.8694 59.4089Z" fill="#FF1010"/>
<path d="M40 15C40.5522 15 41 14.5523 41 14C41 13.4477 40.5522 13 40 13H24C23.4477 13 23 13.4477 23 14C23 14.5523 23.4477 15 24 15H40Z" fill="#FF1010"/>
<path d="M45 18H19C18.4477 18 18 18.4477 18 19C18 19.5523 18.4477 20 19 20H45C45.5522 20 46 19.5523 46 19C46 18.4477 45.5522 18 45 18Z" fill="#FF1010"/>
<path d="M22 28H23C23.5522 28 24 27.5523 24 27C24 26.4477 23.5522 26 23 26H22C21.4477 26 21 26.4477 21 27C21 27.5523 21.4477 28 22 28Z" fill="#FF1010"/>
<path d="M22 33H23C23.5522 33 24 32.5523 24 32C24 31.4477 23.5522 31 23 31H22C21.4477 31 21 31.4477 21 32C21 32.5523 21.4477 33 22 33Z" fill="#FF1010"/>
<path d="M22 38H23C23.5522 38 24 37.5523 24 37C24 36.4477 23.5522 36 23 36H22C21.4477 36 21 36.4477 21 37C21 37.5523 21.4477 38 22 38Z" fill="#FF1010"/>
<path d="M42 26H27C26.4477 26 26 26.4477 26 27C26 27.5523 26.4477 28 27 28H42C42.5522 28 43 27.5523 43 27C43 26.4477 42.5522 26 42 26Z" fill="#FF1010"/>
<path d="M42 31H27C26.4477 31 26 31.4477 26 32C26 32.5523 26.4477 33 27 33H42C42.5522 33 43 32.5523 43 32C43 31.4477 42.5522 31 42 31Z" fill="#FF1010"/>
<path d="M42 36H27C26.4477 36 26 36.4477 26 37C26 37.5523 26.4477 38 27 38H42C42.5522 38 43 37.5523 43 37C43 36.4477 42.5522 36 42 36Z" fill="#FF1010"/>
<path d="M18 47C18 47.5523 18.4477 48 19 48H28C28.5522 48 29 47.5523 29 47C29 46.4477 28.5522 46 28 46H19C18.4477 46 18 46.4477 18 47Z" fill="#FF1010"/>
<path d="M32 54H17.8995C17.5008 52.0439 15.9561 50.4992 14 50.1005V9.8995C15.9561 9.50075 17.5008 7.95613 17.8995 6H46.1004C46.4991 7.95613 48.0438 9.50075 49.9999 9.8995V40C49.9999 40.5522 50.4476 41 50.9999 41C51.5521 41 51.9999 40.5522 51.9999 40V9C51.9999 8.44775 51.5521 8 50.9999 8C49.3456 8 47.9999 6.65425 47.9999 5C47.9999 4.44775 47.5521 4 46.9999 4H17C16.4478 4 16 4.44775 16 5C16 6.65425 14.6543 8 13 8C12.4477 8 12 8.44775 12 9V51C12 51.5522 12.4477 52 13 52C14.6543 52 16 53.3457 16 55C16 55.5522 16.4478 56 17 56H32C32.5522 56 33 55.5522 33 55C33 54.4478 32.5522 54 32 54Z" fill="#FF1010"/>
</svg>
