<svg width="61" height="61" viewBox="0 0 61 61" fill="none" xmlns="http://www.w3.org/2000/svg">
<path d="M54.4836 30.6233C53.8175 29.2154 52.4362 28.3407 50.8788 28.3407H48.6138V4.26428C48.6137 1.91292 46.7009 0 44.3495 0H16.6509C14.2995 0 12.3866 1.91292 12.3866 4.26428V28.3408H10.1214C8.56384 28.3408 7.18252 29.2154 6.51641 30.6234C5.85029 32.0314 6.05033 33.654 7.03813 34.8582L14.144 43.5202C14.5622 44.0298 15.3145 44.1041 15.824 43.6859C16.3337 43.2677 16.4081 42.5156 15.9899 42.0058L8.88397 33.3438C8.48152 32.8533 8.40324 32.218 8.67464 31.6443C8.94604 31.0708 9.48694 30.7283 10.1214 30.7283H13.5804C14.2397 30.7283 14.7742 30.1938 14.7742 29.5345V4.26428C14.7742 3.22943 15.6161 2.38758 16.6509 2.38758H44.3495C45.3844 2.38758 46.2262 3.22954 46.2262 4.26428V29.5346C46.2262 30.1938 46.7607 30.7284 47.42 30.7284H50.8787C51.5132 30.7284 52.054 31.0709 52.3254 31.6445C52.5968 32.218 52.5184 32.8534 52.1161 33.3439L31.9959 57.8699C31.99 57.8772 31.9841 57.8844 31.9784 57.8917C31.6203 58.3498 31.0814 58.6125 30.5 58.6125C29.9186 58.6125 29.3797 58.35 29.0216 57.8919C29.0159 57.8845 29.01 57.8772 29.0041 57.8699L22.7782 50.2806C22.3601 49.7708 21.6077 49.6968 21.0981 50.1148C20.5885 50.533 20.5142 51.2852 20.9323 51.795L27.15 59.3742C27.9639 60.4076 29.1839 61 30.5 61C31.8159 61 33.0362 60.4075 33.8498 59.3743L53.9618 34.858C54.9497 33.654 55.1496 32.0312 54.4836 30.6233Z" fill="#FF1010"/>
<path d="M30.3779 35.5419C30.3759 35.5419 30.374 35.5417 30.3719 35.5417C30.3671 35.5417 30.3623 35.5424 30.3574 35.5424C28.2932 35.5549 27.4754 35.4618 25.7078 34.3056C25.1561 33.9448 24.4163 34.0993 24.0554 34.651C23.6945 35.2027 23.8491 35.9426 24.4009 36.3034C26.2574 37.5181 27.5026 37.8437 29.1782 37.9139V39.6749C29.1782 40.3341 29.7126 40.8687 30.3719 40.8687C31.0313 40.8687 31.5656 40.3342 31.5656 39.6749V37.824C32.8302 37.6048 33.9757 37.0458 34.9246 36.174C36.0421 35.1473 36.7963 33.756 37.0484 32.2566C37.561 29.2067 35.9641 26.5545 32.9798 25.4996C30.2249 24.5259 28.6207 23.7741 27.6156 22.9857C26.9791 22.4863 26.705 21.5325 26.9002 20.4963C27.0819 19.5324 27.7439 18.3613 29.0574 17.9657C31.9718 17.0878 35.2406 19.1341 35.3 19.1717C35.8537 19.5282 36.5914 19.3688 36.9488 18.8156C37.3064 18.2617 37.1474 17.5228 36.5937 17.1652C36.4693 17.0849 34.2851 15.6988 31.5657 15.413V13.8068C31.5657 13.1476 31.0314 12.613 30.3721 12.613C29.7127 12.613 29.1783 13.1475 29.1783 13.8068V15.4868C28.9089 15.5356 28.6388 15.5982 28.3687 15.6796C26.4131 16.2687 24.9514 17.9451 24.554 20.0541C24.193 21.9696 24.8015 23.8127 26.1421 24.8642C27.3796 25.8349 29.13 26.671 32.184 27.7507C34.9873 28.7416 34.8137 31.1471 34.6939 31.8608C34.3983 33.619 32.9217 35.5184 30.3779 35.5419Z" fill="#FF1010"/>
<path d="M17.7141 45.9687C17.2024 46.3845 17.1247 47.1363 17.5404 47.648C17.9562 48.1596 18.7079 48.2374 19.2196 47.8216C19.7314 47.4058 19.809 46.654 19.3934 46.1423C18.9776 45.6307 18.2257 45.553 17.7141 45.9687Z" fill="#FF1010"/>
</svg>
