<svg width="72" height="72" viewBox="0 0 72 72" fill="none" xmlns="http://www.w3.org/2000/svg">
<path d="M35.688 27.0275C35.6461 26.9728 35.5971 26.9239 35.5424 26.8819L35.554 26.879L23.9873 17.9661C23.6431 17.6993 23.1477 17.7621 22.881 18.1064C22.7741 18.2444 22.7159 18.4141 22.7157 18.5888L22.6983 22.261H13.4042C12.9672 22.261 12.6127 22.6155 12.6127 23.0525V31.9596C12.6127 32.3966 12.9672 32.751 13.4042 32.751H22.6837L22.6168 36.3651C22.5905 36.8014 22.9229 37.1765 23.3593 37.2028C23.5481 37.2142 23.7349 37.1576 23.8855 37.0431L35.5424 28.1331C35.888 27.868 35.9532 27.3731 35.688 27.0275ZM24.229 34.7968L24.2727 31.9684C24.2775 31.533 23.9284 31.1759 23.493 31.1711C23.4919 31.1711 23.4909 31.1711 23.4899 31.1711H14.1988V23.8441H23.4899C23.927 23.8441 24.2814 23.4897 24.2814 23.0527C24.2814 23.0294 24.2814 23.009 24.2814 22.9857V20.1894L33.7675 27.5018L24.229 34.7968Z" fill="#FF1010"/>
<path d="M71.9651 41.0936L69.4073 32.6783C69.3806 32.5553 69.3247 32.4405 69.2444 32.3436L57.6603 18.3589C57.5113 18.158 57.276 18.0393 57.0259 18.0388H46.2304V13.674C46.2304 13.237 45.876 12.8826 45.4389 12.8826H3.03948C2.60461 12.8826 2.25121 13.2334 2.24801 13.6682V40.6629C0.898563 40.969 -0.0437914 42.1897 0.00160224 43.5727V48.5893C0.00480307 50.2658 1.36298 51.624 3.03948 51.6272H6.65061C7.09596 56.1872 11.1536 59.5229 15.7136 59.0776C19.6578 58.6923 22.7787 55.5714 23.164 51.6272H51.1335C51.5788 56.1872 55.6365 59.5229 60.1965 59.0776C64.1406 58.6923 67.2616 55.5714 67.6469 51.6272H68.9534C69.7571 51.6263 70.5276 51.306 71.095 50.7368C71.6659 50.1691 71.9875 49.3974 71.9884 48.5922L72 48.5981V41.3234C71.9997 41.2455 71.9879 41.1679 71.9651 41.0936ZM3.83387 14.4597H44.6445V40.5436H3.83387V14.4597ZM19.6518 55.5904C17.0321 58.2116 12.7834 58.2126 10.1622 55.5928C7.54102 52.973 7.54 48.7243 10.1599 46.1032C12.7796 43.482 17.0283 43.4809 19.6495 46.1008C20.9087 47.3595 21.6161 49.0668 21.616 50.8474C21.6177 52.6266 20.9109 54.3332 19.6518 55.5904ZM64.1463 55.5904C61.5266 58.2116 57.2779 58.2126 54.6567 55.5928C52.0355 52.9729 52.0345 48.7243 54.6544 46.1032C57.2741 43.482 61.5228 43.4809 64.144 46.1008C65.4032 47.3595 66.1106 49.0668 66.1105 50.8474C66.1122 52.6266 65.4054 54.3332 64.1463 55.5904ZM70.4258 48.5981L70.4199 48.6068C70.4198 48.9919 70.267 49.3613 69.9951 49.634C69.7225 49.9059 69.3531 50.0587 68.9679 50.0588H67.6614C67.6614 50.0588 66.5586 42.5572 59.4033 42.5572C53.6476 42.5572 51.3924 47.4865 51.1451 50.0588H23.164C23.164 50.0588 22.291 42.5572 14.9058 42.5572C10.0668 42.5572 7.08417 46.1421 6.6477 50.0588H3.03948C2.23593 50.0588 1.58456 49.4074 1.58456 48.6039V43.5727C1.60158 42.7763 2.24306 42.1348 3.03948 42.1178H45.436C45.873 42.1178 46.2275 41.7634 46.2275 41.3263V19.6247H56.6622L67.932 33.2515L70.4258 41.4544V48.5981Z" fill="#FF1010"/>
<path d="M66.7012 37.8899L66.7041 37.8986L65.642 33.9703C65.6085 33.8427 65.5435 33.7257 65.4528 33.6298L55.8503 21.9904C55.7011 21.8063 55.4764 21.6993 55.2393 21.6995H48.9249C48.4878 21.6995 48.1334 22.0539 48.1334 22.4909V38.0906C48.1334 38.5277 48.4878 38.8821 48.9249 38.8821H48.9947H65.9388C66.3743 38.8824 66.7277 38.5296 66.7279 38.0941C66.7279 38.025 66.7189 37.9564 66.7012 37.8899ZM49.7193 37.3166V23.2824H54.8755L64.158 34.5348L64.9087 37.3137L49.7193 37.3166Z" fill="#FF1010"/>
<path d="M61.9062 48.3483C61.9041 48.3462 61.9019 48.344 61.8999 48.342C60.5221 46.9607 58.2854 46.9579 56.9041 48.3357C56.9021 48.3378 56.8999 48.34 56.8979 48.342C55.5166 49.7198 55.5138 51.9565 56.8916 53.3378C56.8937 53.3398 56.8958 53.342 56.8979 53.344C58.2757 54.7253 60.5123 54.7281 61.8936 53.3503C61.8957 53.3483 61.8979 53.3461 61.8999 53.344C63.2812 51.9662 63.284 49.7296 61.9062 48.3483ZM60.7854 52.2297C60.0148 52.9931 58.7711 52.987 58.0077 52.2163C57.2443 51.4456 57.2504 50.202 58.0211 49.4386C58.7917 48.6752 60.0354 48.6813 60.7988 49.452C61.1656 49.8224 61.3702 50.3233 61.3674 50.8446C61.3655 51.3653 61.1561 51.8638 60.7854 52.2297Z" fill="#FF1010"/>
<path d="M17.4146 48.3483C17.4125 48.3462 17.4104 48.344 17.4083 48.342C16.0305 46.9607 13.7938 46.9579 12.4125 48.3357C12.4105 48.3378 12.4083 48.34 12.4063 48.342C11.025 49.7198 11.0222 51.9565 12.4 53.3378C12.4021 53.3398 12.4042 53.342 12.4063 53.344C13.7841 54.7253 16.0208 54.7281 17.4021 53.3503C17.4041 53.3483 17.4063 53.3461 17.4083 53.344C18.7896 51.9662 18.7924 49.7296 17.4146 48.3483ZM16.2938 52.2297C15.5232 52.9931 14.2795 52.987 13.5161 52.2163C12.7527 51.4456 12.7588 50.202 13.5295 49.4386C14.3002 48.6752 15.5438 48.6813 16.3072 49.452C16.674 49.8224 16.8786 50.3233 16.8758 50.8446C16.8732 51.3658 16.6627 51.8644 16.2909 52.2297H16.2938Z" fill="#FF1010"/>
</svg>
