<svg width="63" height="63" viewBox="0 0 63 63" fill="none" xmlns="http://www.w3.org/2000/svg">
<g clip-path="url(#clip0_0_112)">
<path d="M62.2364 35.0795C61.8844 33.8045 61.553 32.5994 61.553 31.4997C61.553 30.4 61.8844 29.1949 62.2364 27.92C62.7965 25.8904 63.3744 23.791 62.6828 21.7505C61.9652 19.6279 60.1767 18.2406 58.4471 16.9013C57.4104 16.0974 56.4312 15.3387 55.7958 14.5034C55.1494 13.6516 54.692 12.5149 54.21 11.3112C53.4143 9.33368 52.5926 7.28771 50.7521 6.00316C48.9417 4.73778 46.6821 4.6159 44.5005 4.4995C43.1393 4.42691 41.852 4.35707 40.7742 4.02155C39.7663 3.70795 38.7228 3.05746 37.619 2.36862C35.8428 1.25936 33.8283 0.00219727 31.4989 0.00219727C29.1694 0.00219727 27.155 1.25936 25.3788 2.36999C24.275 3.05883 23.2342 3.71069 22.2249 4.02292C21.1458 4.35844 19.8585 4.42828 18.4973 4.50086C16.3143 4.61864 14.0575 4.73915 12.2457 6.00453C10.4051 7.28908 9.58346 9.33368 8.7878 11.3112C8.30302 12.5149 7.84562 13.6529 7.19923 14.5048C6.56381 15.3429 5.58464 16.1015 4.54796 16.9068C2.81971 18.2475 1.03394 19.632 0.316341 21.7519C-0.375235 23.7938 0.202676 25.8918 0.761414 27.9227C1.11336 29.1977 1.44477 30.4014 1.44477 31.5011C1.44477 32.6008 1.11336 33.8059 0.761414 35.0808C0.202676 37.1104 -0.375235 39.2098 0.316341 41.253C1.03394 43.3729 2.82108 44.7602 4.54933 46.0995C5.58601 46.902 6.56517 47.6621 7.19923 48.4974C7.84699 49.3492 8.30439 50.4859 8.7878 51.691C9.58346 53.6685 10.4065 55.7145 12.2484 57.0017C14.0575 58.2644 16.3157 58.3849 18.4973 58.5013C19.8585 58.5739 21.1458 58.6437 22.2235 58.9792C23.2315 59.2929 24.2736 59.9433 25.376 60.6308C27.1536 61.7387 29.1681 62.9972 31.4989 62.9972C33.8297 62.9972 35.8455 61.7387 37.6245 60.6294C38.7269 59.942 39.7677 59.2915 40.777 58.9779C41.8547 58.6424 43.142 58.5725 44.5033 58.4999C46.6862 58.3835 48.943 58.263 50.7521 57.0004C52.5967 55.7131 53.4184 53.6644 54.2141 51.6855C54.6975 50.4831 55.1535 49.3465 55.7972 48.4974C56.4326 47.6621 57.4118 46.902 58.4484 46.0995C60.1781 44.7588 61.9652 43.3729 62.6842 41.2516C63.3757 39.2084 62.7965 37.1104 62.2364 35.0795ZM60.0889 40.3738C59.6356 41.7131 58.2428 42.7923 56.7693 43.9344C55.6395 44.8108 54.47 45.7174 53.6154 46.8404C52.7486 47.9852 52.2008 49.3465 51.6708 50.6653C50.9957 52.347 50.3575 53.9342 49.1839 54.7531C48.0144 55.5693 46.2382 55.6638 44.3565 55.7638C42.8871 55.8418 41.3657 55.9226 39.9606 56.3608C38.6171 56.7813 37.3737 57.555 36.1727 58.3055C34.5636 59.3107 33.0448 60.2583 31.4987 60.2583C29.9526 60.2583 28.4352 59.3107 26.8261 58.3055C25.6265 57.5564 24.3844 56.7813 23.0396 56.3608C21.6345 55.924 20.113 55.8418 18.6436 55.7638C16.762 55.6638 14.9844 55.5679 13.8163 54.7531C12.644 53.9342 12.0045 52.347 11.3293 50.6666C10.7994 49.3479 10.2502 47.9852 9.38198 46.8404C8.5288 45.7174 7.35929 44.8108 6.22812 43.933C4.75595 42.7909 3.36458 41.7131 2.91129 40.3738C2.48813 39.1262 2.9332 37.513 3.40293 35.8067C3.78637 34.4112 4.18352 32.9705 4.18352 31.4983C4.18352 30.0262 3.78637 28.5869 3.40293 27.1914C2.93183 25.4851 2.48813 23.8732 2.91129 22.6256C3.36458 21.2863 4.75458 20.2085 6.22675 19.0664C7.35792 18.1886 8.5288 17.2806 9.38061 16.1563C10.2516 15.0115 10.7994 13.6475 11.3307 12.3287C12.0045 10.6484 12.6427 9.06253 13.8135 8.24633C14.9831 7.42876 16.762 7.33427 18.645 7.2343C20.113 7.15487 21.6345 7.07407 23.0382 6.63585C24.3844 6.21679 25.6278 5.44031 26.8302 4.68985C28.4366 3.68878 29.954 2.74111 31.4987 2.74111C33.0435 2.74111 34.5622 3.68878 36.1699 4.69259C37.3723 5.44442 38.6144 6.21953 39.9606 6.63859C41.3643 7.07544 42.8844 7.15624 44.3538 7.23567C46.2368 7.33564 48.0144 7.43287 49.1839 8.24907C50.3561 9.068 50.9943 10.6538 51.6681 12.3314C52.1994 13.6516 52.7458 15.0142 53.6168 16.1591C54.47 17.282 55.6395 18.1886 56.7693 19.065C58.2428 20.2085 59.6356 21.2877 60.0889 22.6297C60.512 23.8746 60.0656 25.4864 59.5959 27.1928C59.211 28.5882 58.8139 30.0289 58.8139 31.5011C58.8139 32.9733 59.2097 34.4139 59.5959 35.808C60.0671 37.5144 60.512 39.1262 60.0889 40.3738Z" fill="#FF1010"/>
<path d="M31.4989 10.958C20.1721 10.958 10.957 20.1731 10.957 31.4999C10.957 42.8267 20.1721 52.0417 31.4989 52.0417C42.8257 52.0417 52.0407 42.8267 52.0407 31.4999C52.0407 20.1731 42.8257 10.958 31.4989 10.958ZM31.4989 49.3028C21.6826 49.3028 13.6959 41.3161 13.6959 31.4999C13.6959 21.6836 21.6826 13.6969 31.4989 13.6969C36.5618 13.6969 41.1262 15.8319 44.3718 19.2364L31.3209 37.6022L24.2503 30.5317C23.7149 29.9962 22.8494 29.9962 22.3139 30.5317C21.7785 31.0671 21.7785 31.9326 22.3139 32.4681L30.5307 40.6848C30.7881 40.9436 31.1374 41.0861 31.4989 41.0861C31.5359 41.0861 31.5756 41.0847 31.6139 41.0806C32.0152 41.0477 32.3822 40.8382 32.615 40.5095L46.1685 21.4357C48.1405 24.3006 49.3018 27.7654 49.3018 31.4999C49.3018 41.3161 41.3152 49.3028 31.4989 49.3028Z" fill="#FF1010"/>
</g>
<defs>
<clipPath id="clip0_0_112">
<rect width="63" height="63" fill="white"/>
</clipPath>
</defs>
</svg>
