<svg width="24" height="24" viewBox="0 0 24 24" fill="none" xmlns="http://www.w3.org/2000/svg">
<path fill-rule="evenodd" clip-rule="evenodd" d="M4.23914 10.3913C4.25354 6.15069 7.7029 2.7247 11.9435 2.73906C16.1841 2.75351 19.6101 6.20287 19.5957 10.4435V10.5304C19.5435 13.2869 18.0044 15.8348 16.1174 17.8261C15.0382 18.9467 13.8331 19.9388 12.5261 20.7826C12.1766 21.0849 11.6582 21.0849 11.3087 20.7826C9.3602 19.5143 7.65007 17.9131 6.25653 16.0521C5.01449 14.4294 4.3093 12.4597 4.23914 10.4174V10.3913Z" stroke="#FF1010" stroke-width="1.5" stroke-linecap="round" stroke-linejoin="round"/>
<path d="M11.917 13C13.2762 13 14.378 11.8982 14.378 10.539C14.378 9.17983 13.2762 8.078 11.917 8.078C10.5578 8.078 9.45599 9.17983 9.45599 10.539C9.45599 11.8982 10.5578 13 11.917 13Z" stroke="#FF1010" stroke-width="1.5" stroke-linecap="round" stroke-linejoin="round"/>
</svg>
