<svg width="24" height="24" viewBox="0 0 24 24" fill="none" xmlns="http://www.w3.org/2000/svg">
<path d="M20.25 19.5H3.75C3.15326 19.5 2.58097 19.2629 2.15901 18.841C1.73705 18.419 1.5 17.8467 1.5 17.25V6.75C1.5 6.15326 1.73705 5.58097 2.15901 5.15901C2.58097 4.73705 3.15326 4.5 3.75 4.5H20.25C20.8467 4.5 21.419 4.73705 21.841 5.15901C22.2629 5.58097 22.5 6.15326 22.5 6.75V17.25C22.5 17.8467 22.2629 18.419 21.841 18.841C21.419 19.2629 20.8467 19.5 20.25 19.5ZM3.75 6C3.55109 6 3.36032 6.07902 3.21967 6.21967C3.07902 6.36032 3 6.55109 3 6.75V17.25C3 17.4489 3.07902 17.6397 3.21967 17.7803C3.36032 17.921 3.55109 18 3.75 18H20.25C20.4489 18 20.6397 17.921 20.7803 17.7803C20.921 17.6397 21 17.4489 21 17.25V6.75C21 6.55109 20.921 6.36032 20.7803 6.21967C20.6397 6.07902 20.4489 6 20.25 6H3.75Z" fill="#FF1010"/>
<path d="M12 12.75C11.853 12.7489 11.7095 12.7045 11.5875 12.6225L2.58751 6.62253C2.44198 6.50531 2.34545 6.33798 2.31683 6.15331C2.28821 5.96864 2.32957 5.77994 2.43279 5.62417C2.53602 5.46839 2.69368 5.35677 2.87489 5.31115C3.05611 5.26553 3.24783 5.2892 3.41251 5.37753L12.4125 11.3775C12.5455 11.4669 12.6464 11.5965 12.7004 11.7474C12.7544 11.8983 12.7586 12.0625 12.7125 12.2159C12.6664 12.3694 12.5723 12.504 12.4441 12.6002C12.3159 12.6963 12.1602 12.7488 12 12.75Z" fill="#FF1010"/>
<path d="M12 12.75C11.8391 12.7503 11.6824 12.6989 11.553 12.6034C11.4235 12.5079 11.3282 12.3733 11.2811 12.2194C11.2341 12.0656 11.2377 11.9007 11.2915 11.7491C11.3453 11.5975 11.4465 11.4672 11.58 11.3775L20.58 5.37746C20.745 5.27989 20.9412 5.24923 21.1281 5.29177C21.315 5.33431 21.4786 5.44682 21.5851 5.60618C21.6917 5.76555 21.7332 5.95967 21.7011 6.14868C21.669 6.33768 21.5657 6.50722 21.4125 6.62246L12.4125 12.6225C12.2905 12.7045 12.147 12.7488 12 12.75Z" fill="#FF1010"/>
</svg>
