<svg width="18" height="20" viewBox="0 0 18 20" fill="none" xmlns="http://www.w3.org/2000/svg">
<path d="M12.8745 19.1488C12.1647 19.149 11.4672 18.9437 10.851 18.5532L10.7641 18.4989C6.75802 15.9587 3.40647 12.3222 1.02962 7.93685L0.576522 7.09975C0.112447 6.24393 -0.079856 5.24056 0.0302579 4.24952C0.140372 3.25848 0.546566 2.33682 1.18411 1.6314L2.08687 0.630698C2.84549 -0.210233 4.07928 -0.210233 4.83721 0.630698L6.82618 2.83546C7.12551 3.16884 7.31867 3.60127 7.37642 4.06726C7.43416 4.53324 7.35333 5.00739 7.14618 5.41789L6.39859 6.88951C6.38288 6.92048 6.37673 6.95629 6.38109 6.99148C6.38545 7.02668 6.40007 7.05933 6.42273 7.08446L10.851 11.9932C10.874 12.0182 10.9038 12.0343 10.9357 12.0389C10.9677 12.0436 11.0001 12.0367 11.0282 12.0192L12.3538 11.1913L12.3545 11.1905C12.7248 10.9611 13.1525 10.8717 13.5728 10.9357C13.9932 10.9997 14.3832 11.2136 14.6841 11.5452L16.6738 13.7515C17.4324 14.5924 17.4324 15.9601 16.6738 16.8003L15.731 17.8445C15.3555 18.2594 14.91 18.5881 14.4198 18.8119C13.9297 19.0356 13.4046 19.1501 12.8745 19.1488ZM3.46204 1.52896C3.31721 1.52896 3.17238 1.59012 3.06204 1.71244L2.15928 2.71238C1.73967 3.17668 1.47232 3.7833 1.39983 4.43558C1.32734 5.08785 1.45388 5.74826 1.75928 6.31156L2.21238 7.14867C4.46697 11.3088 7.64612 14.7586 11.4462 17.1687L11.5331 17.223C12.5855 17.8904 13.9096 17.7016 14.7551 16.7628L15.6979 15.7185C15.7505 15.6603 15.7921 15.5912 15.8206 15.5151C15.849 15.439 15.8637 15.3575 15.8637 15.2751C15.8637 15.1928 15.849 15.1112 15.8206 15.0351C15.7921 14.9591 15.7505 14.8899 15.6979 14.8317L13.7082 12.6254C13.6207 12.5289 13.5071 12.4667 13.3848 12.4482C13.2624 12.4298 13.138 12.456 13.0303 12.523L11.7048 13.3509C11.4142 13.5313 11.0784 13.6018 10.7484 13.5517C10.4184 13.5016 10.1121 13.3337 9.87583 13.0734L5.44756 8.16467C5.21248 7.90313 5.06083 7.56369 5.01564 7.19791C4.97046 6.83212 5.03421 6.45999 5.19721 6.13803L5.9448 4.66716C6.00486 4.54778 6.02826 4.40997 6.01147 4.27455C5.99467 4.13913 5.93859 4.01343 5.85169 3.91644L3.86204 1.71244C3.80955 1.65417 3.74719 1.60797 3.67855 1.57648C3.6099 1.54499 3.53633 1.52885 3.46204 1.52896Z" fill="#FF1010"/>
</svg>
