<svg width="15" height="16" viewBox="0 0 15 16" fill="none" xmlns="http://www.w3.org/2000/svg">
<path d="M13.7417 13.0341L10.1292 9.02965L9.63333 9.57928L8.925 8.79409C9.5625 7.85187 9.91667 6.75261 9.91667 5.49631C9.91667 2.43408 7.72083 0 4.95833 0C2.19583 0 0 2.43408 0 5.49631C0 8.55854 2.19583 10.9926 4.95833 10.9926C6.09167 10.9926 7.08333 10.6 7.93333 9.89336L8.64167 10.6785L8.14583 11.2282L11.7583 15.2326C12.325 15.8608 13.175 15.8608 13.7417 15.2326C14.3083 14.6045 14.3083 13.6623 13.7417 13.0341ZM4.95833 9.42224C2.975 9.42224 1.41667 7.69483 1.41667 5.49631C1.41667 3.29779 2.975 1.57037 4.95833 1.57037C6.94167 1.57037 8.5 3.29779 8.5 5.49631C8.5 7.69483 6.94167 9.42224 4.95833 9.42224Z" fill="#6B6B6B"/>
</svg>
