<svg width="24" height="27" viewBox="0 0 24 27" fill="none" xmlns="http://www.w3.org/2000/svg">
<path d="M22 6.59925C21.2483 6.96073 20.4534 7.19968 19.64 7.30869C20.4982 6.74039 21.1413 5.84634 21.45 4.7924C20.6436 5.32455 19.7608 5.69948 18.84 5.9009C18.2245 5.16105 17.405 4.66857 16.5098 4.5007C15.6147 4.33282 14.6945 4.49904 13.8938 4.97329C13.093 5.44754 12.4569 6.203 12.0852 7.12117C11.7135 8.03935 11.6273 9.06831 11.84 10.0467C10.2094 9.95526 8.61444 9.48462 7.15865 8.66534C5.70287 7.84606 4.41885 6.69646 3.39 5.29122C3.02914 5.98976 2.83952 6.78085 2.84 7.58582C2.83872 8.33337 3.00422 9.06967 3.32176 9.72917C3.63929 10.3887 4.09902 10.9509 4.66 11.3658C4.00798 11.3461 3.36989 11.1522 2.8 10.8005V10.8559C2.80489 11.9033 3.13599 12.9167 3.73731 13.7246C4.33864 14.5326 5.17326 15.0855 6.1 15.2899C5.74326 15.4102 5.37287 15.4737 5 15.4783C4.74189 15.475 4.48442 15.449 4.23 15.4007C4.49391 16.3017 5.00462 17.0891 5.69107 17.6534C6.37753 18.2176 7.20558 18.5306 8.06 18.5489C6.6172 19.8073 4.83588 20.4941 3 20.4998C2.66574 20.501 2.33174 20.4788 2 20.4333C3.87443 21.7749 6.05881 22.4871 8.29 22.484C9.82969 22.5018 11.3571 22.1792 12.7831 21.5353C14.2091 20.8913 15.505 19.9388 16.5952 18.7334C17.6854 17.5281 18.548 16.094 19.1326 14.5149C19.7172 12.9359 20.012 11.2436 20 9.53677C20 9.34833 20 9.1488 20 8.94927C20.7847 8.30059 21.4615 7.50537 22 6.59925Z" fill="white"/>
</svg>
